<svg xmlns="http://www.w3.org/2000/svg" viewBox="0 0 24 24" width="24" height="24">
  <g>
    <path fill="black" d="M16.365 1.43c0 1.14-.93 2.07-2.07 2.07-.06 0-.12 0-.18-.01.01-.13.02-.26.02-.39 0-1.14.93-2.07 2.07-2.07.06 0 .12 0 .18.01-.01.13-.02.26-.02.39zm2.52 4.13c-1.36-.08-2.51.78-3.16.78-.65 0-1.65-.76-2.72-.74-1.4.02-2.7.81-3.42 2.06-1.46 2.53-.37 6.28 1.05 8.34.7 1.01 1.53 2.14 2.62 2.1 1.06-.04 1.46-.68 2.74-.68 1.28 0 1.64.68 2.74.66 1.13-.02 1.84-1.03 2.53-2.04.8-1.17 1.13-2.3 1.14-2.36-.02-.01-2.19-.84-2.21-3.33-.02-2.08 1.7-3.06 1.78-3.11-1-.15-1.97-.1-2.53-.07z"/>
  </g>
</svg> 