<svg width="100" height="100" viewBox="0 0 100 100" fill="none" xmlns="http://www.w3.org/2000/svg">
  <path d="M50 20C35 20 25 35 25 50C25 65 35 80 50 80C65 80 75 65 75 50C75 35 65 20 50 20Z" fill="#f97316" fill-opacity="0.5" stroke="#ea580c" stroke-width="2" stroke-linecap="round" stroke-linejoin="round"/>
  <path d="M50 20V10" stroke="#ea580c" stroke-width="2" stroke-linecap="round" stroke-linejoin="round"/>
  <path d="M40 10L50 5L60 10" stroke="#ea580c" stroke-width="2" stroke-linecap="round" stroke-linejoin="round"/>
  <path d="M50 35C45 40 45 60 50 65" stroke="#ea580c" stroke-width="2" stroke-linecap="round" stroke-linejoin="round"/>
  <path d="M40 45C45 50 55 50 60 45" stroke="#ea580c" stroke-width="2" stroke-linecap="round" stroke-linejoin="round"/>
  <path d="M40 55C45 60 55 60 60 55" stroke="#ea580c" stroke-width="2" stroke-linecap="round" stroke-linejoin="round"/>
</svg>
