<svg xmlns="http://www.w3.org/2000/svg" width="46" height="46" viewBox="0 0 48 48">
  <g>
    <path fill="#4285F4" d="M24 9.5c3.54 0 6.7 1.22 9.19 3.23l6.85-6.85C36.45 2.36 30.68 0 24 0 14.82 0 6.73 5.06 2.69 12.44l7.98 6.2C12.13 13.13 17.62 9.5 24 9.5z"/>
    <path fill="#34A853" d="M46.1 24.5c0-1.64-.15-3.22-.42-4.74H24v9.01h12.42c-.54 2.9-2.18 5.36-4.64 7.01l7.19 5.6C43.98 37.36 46.1 31.45 46.1 24.5z"/>
    <path fill="#FBBC05" d="M10.67 28.64a14.5 14.5 0 0 1 0-9.28l-7.98-6.2A24.01 24.01 0 0 0 0 24c0 3.77.9 7.34 2.69 10.56l7.98-6.2z"/>
    <path fill="#EA4335" d="M24 48c6.48 0 11.92-2.15 15.89-5.85l-7.19-5.6c-2.01 1.35-4.6 2.15-8.7 2.15-6.38 0-11.87-3.63-14.33-8.94l-7.98 6.2C6.73 42.94 14.82 48 24 48z"/>
    <path fill="none" d="M0 0h48v48H0z"/>
  </g>
</svg> 