<svg width="24" height="24" viewBox="0 0 24 24" fill="none" xmlns="http://www.w3.org/2000/svg">
  <path d="M12 2C8 2 4 6 4 10C4 14 7 16 10 18C13 20 14 22 14 22" stroke="#16a34a" stroke-width="1.5" stroke-linecap="round" stroke-linejoin="round"/>
  <path d="M12 2C16 2 20 6 20 10C20 14 17 16 14 18" stroke="#16a34a" stroke-width="1.5" stroke-linecap="round" stroke-linejoin="round"/>
  <path d="M12 6C10 8 9 10 9 12" stroke="#16a34a" stroke-width="1.5" stroke-linecap="round" stroke-linejoin="round"/>
  <path d="M12 6C14 8 15 10 15 12" stroke="#16a34a" stroke-width="1.5" stroke-linecap="round" stroke-linejoin="round"/>
  <path fill="#16a34a" fill-opacity="0.2" d="M12 2C8 2 4 6 4 10C4 14 7 16 10 18C13 20 14 22 14 22C14 22 13 20 13 18C13 16 14 14 14 14C14 14 17 14 17 10C17 6 16 2 12 2Z"/>
</svg>
